#!OML:ASF H:\Terrain\Patient Classification 1\Terrain2\Thursday\justin.ASF
:FULLY-SPECIFIED
:DEGREES
3014
root 9.19727 18.6551 -1.12362 890.629 259.863 539.536
lowerback 14.5675 -1.20347 -3.9555
upperback 5.00696 -2.26383 3.036
thorax -2.57856 -1.27484 5.81955
lowerneck -13.8965 -1.31572 -9.29302
upperneck 36.5783 -2.27451 4.63971
head 15.2841 -2.0746 3.11285
rclavicle -1.03368e-014 -9.54166e-015
rhumerus -33.2868 -7.45444 -79.6379
rradius 31.988
rwrist -13.0734
rhand -20.5228 12.5237
rfingers 7.12502
rthumb 5.83512 -17.3759
lclavicle -1.03368e-014 -9.54166e-015
lhumerus -29.5978 -5.51596 91.5382
lradius 42.4522
lwrist 6.79671
lhand -19.2737 19.4067
lfingers 7.12502
lthumb 7.04092 49.2696
rfemur -70.833 -22.1103 20.6265
rtibia 120.754
rfoot -21.5909 11.3537
rtoes -1.67568
lfemur 21.4424 -2.53539 -23.1909
ltibia -6.52014e-014
lfoot 16.5452 -6.36057
ltoes -0.655426
3015
root 9.13015 18.6629 -1.12862 892.48 259.799 537.612
lowerback 14.7985 -1.1669 -3.54089
upperback 5.12135 -2.17144 3.05669
thorax -2.61023 -1.23183 5.59676
lowerneck -13.8035 -1.42998 -9.01585
upperneck 36.3409 -2.48102 4.54628
head 15.1605 -2.12319 2.9842
rclavicle -1.21259e-014 0
rhumerus -33.2238 -7.77524 -79.7355
rradius 31.8579
rwrist -13.0162
rhand -20.2453 12.4463
rfingers 7.12502
rthumb 6.10302 -17.4458
lclavicle -1.21259e-014 0
lhumerus -29.3529 -6.29088 91.4157
lradius 42.8235
lwrist 6.97348
lhand -18.732 19.5276
lfingers 7.12502
lthumb 7.56379 49.3723
rfemur -71.6192 -21.0696 21.5075
rtibia 118.796
rfoot -21.2048 10.295
rtoes -3.35812
lfemur 21.6919 -2.64463 -22.7496
ltibia -4.77083e-015
lfoot 16.6808 -6.61979
ltoes -0.616954
3016
root 9.0671 18.6615 -1.13351 892.044 259.663 538.069
lowerback 15.0892 -1.12192 -3.57424
upperback 5.17179 -2.13097 2.94703
thorax -2.72095 -1.2102 5.50405
lowerneck -13.7328 -1.49339 -8.72793
upperneck 36.1643 -2.68204 4.6214
head 15.0714 -2.14986 2.92829
rclavicle 7.65321e-015 -1.35174e-014
rhumerus -33.3015 -7.87051 -79.9455
rradius 31.9156
rwrist -13.1034
rhand -20.0674 12.4236
rfingers 7.12502
rthumb 6.27476 -17.4635
lclavicle 7.65321e-015 -1.35174e-014
lhumerus -29.1323 -6.89215 91.2959
lradius 43.1878
lwrist 7.21153
lhand -18.6952 19.7898
lfingers 7.12502
lthumb 7.5994 49.6333
rfemur -72.4066 -20.2896 21.8234
rtibia 116.815
rfoot -20.7724 9.67754
rtoes -2.22123
lfemur 21.874 -2.7509 -22.7819
ltibia 4.92986e-014
lfoot 16.6842 -6.74364
ltoes -0.76497
3017
root 9.00614 18.6438 -1.1364 889.251 259.395 541.04
lowerback 15.324 -1.0844 -4.16538
upperback 5.1736 -2.17805 2.82135
thorax -2.81923 -1.23263 5.72714
lowerneck -13.7329 -1.54422 -8.87726
upperneck 35.9833 -2.82542 4.9814
head 15.0053 -2.173 3.08092
rclavicle -3.73715e-014 -3.97569e-015
rhumerus -33.3085 -8.0378 -79.9511
rradius 31.9474
rwrist -12.9341
rhand -20.0462 12.1431
rfingers 7.12502
rthumb 6.29524 -17.7434
lclavicle -3.73715e-014 -3.97569e-015
lhumerus -28.9262 -7.19612 91.2955
lradius 43.5092
lwrist 7.31587
lhand -19.1823 19.9137
lfingers 7.12502
lthumb 7.12918 49.7737
rfemur -73.4213 -19.8946 21.7612
rtibia 114.908
rfoot -20.3503 8.71888
rtoes -2.6785
lfemur 21.907 -2.89937 -23.3379
ltibia -3.18055e-014
lfoot 16.8063 -6.82915
ltoes -0.115553
3018
root 8.94015 18.6317 -1.13802 887.501 259.252 542.94
lowerback 15.4896 -1.03142 -4.52486
upperback 5.20751 -2.17184 2.72893
thorax -2.8612 -1.23074 5.84009
lowerneck -13.833 -1.64563 -8.97228
upperneck 35.8883 -3.01339 5.22172
head 15.0075 -2.22572 3.16733
rclavicle -1.85864e-014 -1.66979e-014
rhumerus -33.1057 -8.22053 -79.9865
rradius 31.6382
rwrist -12.9177
rhand -20.4816 12.0521
rfingers 7.12502
rthumb 5.87484 -17.8464
lclavicle -1.85864e-014 -1.66979e-014
lhumerus -28.6012 -7.40977 91.1715
lradius 43.6077
lwrist 7.04042
lhand -19.0899 20.1042
lfingers 7.12502
lthumb 7.21837 49.9611
rfemur -74.3156 -19.3976 21.7967
rtibia 112.986
rfoot -19.6506 8.14445
rtoes -2.49664
lfemur 21.9981 -2.94746 -23.6734
ltibia 0
lfoot 16.8745 -6.87794
ltoes 0.640468
3019
root 8.87336 18.6283 -1.14451 888.461 259.247 542.028
lowerback 15.696 -1.02948 -4.39088
upperback 5.26811 -2.1609 2.7617
thorax -2.91293 -1.22722 5.80431
lowerneck -13.9581 -1.68878 -8.80204
upperneck 35.8605 -3.11056 5.22241
head 15.0291 -2.23855 3.1209
rclavicle 5.06901e-015 -1.27222e-014
rhumerus -32.9047 -8.18802 -80.1331
rradius 31.366
rwrist -12.9135
rhand -20.5201 12.0767
rfingers 7.12502
rthumb 5.83772 -17.8229
lclavicle 5.06901e-015 -1.27222e-014
lhumerus -28.3223 -7.68443 90.9792
lradius 43.7513
lwrist 6.90459
lhand -18.5367 20.1395
lfingers 7.12502
lthumb 7.75239 49.9774
rfemur -74.8444 -18.6351 22.2132
rtibia 110.964
rfoot -18.9145 7.83263
rtoes -0.539013
lfemur 22.1752 -2.98645 -23.4013
ltibia -1.43125e-014
lfoot 16.7454 -6.86797
ltoes 1.02792
3020
root 8.80794 18.6188 -1.15604 888.809 259.2 541.779
lowerback 15.8673 -1.03966 -4.58937
upperback 5.3193 -2.21047 2.93042
thorax -2.92686 -1.2583 6.11478
lowerneck -13.9451 -1.66301 -8.99126
upperneck 35.6863 -3.01403 5.28015
head 14.9386 -2.20655 3.19144
rclavicle 4.96962e-016 -2.38542e-014
rhumerus -32.7206 -7.81578 -80.1161
rradius 31.2492
rwrist -12.8919
rhand -19.9514 12.1281
rfingers 7.12502
rthumb 6.38674 -17.7556
lclavicle 4.96962e-016 -2.38542e-014
lhumerus -28.1986 -7.74807 91.0684
lradius 44.0662
lwrist 7.02978
lhand -18.4875 20.1716
lfingers 7.12502
lthumb 7.7998 50.0077
rfemur -75.2904 -17.875 22.4812
rtibia 109.061
rfoot -18.2646 7.25193
rtoes -0.42173
lfemur 22.2957 -3.04416 -23.2489
ltibia 4.45278e-014
lfoot 16.5114 -7.43721
ltoes -1.02862
3021
root 8.73863 18.5934 -1.16043 888.35 259.204 542.299
lowerback 16.04 -1.09053 -4.92051
upperback 5.37254 -2.33544 3.11314
thorax -2.92056 -1.32924 6.53096
lowerneck -13.9057 -1.60669 -9.48087
upperneck 35.521 -2.79846 5.37013
head 14.8419 -2.16179 3.34829
rclavicle -2.10712e-014 2.54444e-014
rhumerus -32.5078 -7.04876 -80.1257
rradius 31.0771
rwrist -13.0512
rhand -19.8191 12.4658
rfingers 7.12502
rthumb 6.51446 -17.414
lclavicle -2.10712e-014 2.54444e-014
lhumerus -28.0766 -7.55683 91.1633
lradius 44.3013
lwrist 7.12464
lhand -18.6246 20.5827
lfingers 7.12502
lthumb 7.66749 50.4237
rfemur -75.6437 -17.2556 22.6737
rtibia 107.268
rfoot -17.3991 6.57894
rtoes -2.19855
lfemur 20.7144 -3.0051 -23.2412
ltibia 3.53156
lfoot 14.3453 -8.4769
ltoes -4.12409
3022
root 8.66789 18.5255 -1.16256 887.197 259.171 543.497
lowerback 16.2573 -1.1026 -5.17961
upperback 5.45051 -2.40805 3.0746
thorax -2.93182 -1.37108 6.66003
lowerneck -14.0424 -1.60244 -9.53676
upperneck 35.4643 -2.74481 5.3624
head 14.8426 -2.14099 3.36296
rclavicle -2.79292e-014 1.66979e-014
rhumerus -32.3737 -6.55801 -80.3218
rradius 30.9988
rwrist -13.1387
rhand -20.0266 12.4979
rfingers 7.12502
rthumb 6.31418 -17.388
lclavicle -2.79292e-014 1.66979e-014
lhumerus -27.773 -7.63947 91.0405
lradius 44.3887
lwrist 7.14367
lhand -18.7539 20.8042
lfingers 7.12502
lthumb 7.54273 50.6497
rfemur -76.1825 -16.8163 22.7278
rtibia 105.669
rfoot -16.1392 6.13604
rtoes -4.2464
lfemur 19.5183 -2.95818 -23.4173
ltibia 6.42811
lfoot 12.3721 -9.05332
ltoes -5.77186
